<svg version="1.1" id="Layer_1" xmlns="http://www.w3.org/2000/svg" xmlns:xlink="http://www.w3.org/1999/xlink" x="0px" y="0px"
	 width="100%" viewBox="0 0 1024 480" enable-background="new 0 0 1024 480" xml:space="preserve">
<path fill="#000000" opacity="1.000000" stroke="none" 
	d="
M399.154938,339.179504 
	C381.341675,336.734497 364.238678,333.219086 348.017365,326.352325 
	C334.195801,320.501434 321.560272,312.873474 312.512665,300.470886 
	C298.169769,280.809479 298.141632,255.945801 312.595551,232.940613 
	C325.996704,211.610962 344.857819,196.363220 367.113342,185.081833 
	C372.554138,182.323898 378.418060,180.985535 384.546265,181.724655 
	C388.940613,182.254639 392.658203,181.229950 396.139526,178.442520 
	C410.896515,166.626862 428.232178,161.219833 446.584564,158.328690 
	C453.848907,157.184296 460.878265,157.750305 467.682922,160.499527 
	C470.833069,161.772263 473.700562,161.632401 476.748718,160.062424 
	C494.546509,150.895538 513.728210,151.331451 532.931091,152.264740 
	C543.844543,152.795135 554.470215,154.554474 563.729614,161.048080 
	C565.324219,162.166443 567.331787,162.238266 569.053467,161.663193 
	C586.315002,155.897629 602.262939,161.532837 618.073853,167.431900 
	C642.905457,176.696579 665.481689,189.580551 682.858643,210.143677 
	C694.319092,223.705627 702.059937,238.959213 702.246094,257.203430 
	C702.419250,274.173431 694.619446,287.221405 681.736816,297.532990 
	C666.146057,310.012238 647.665527,316.180695 628.699463,321.041077 
	C604.140564,327.334656 579.062744,330.633331 553.899536,333.313904 
	C533.055603,335.534332 512.234192,338.063904 491.345428,339.742798 
	C465.613892,341.810913 439.822632,342.977844 414.022827,340.457184 
	C409.221619,339.988068 404.409790,339.627991 399.154938,339.179504 
M547.777344,165.580704 
	C537.486145,163.130554 527.099609,162.800644 516.202209,163.466949 
	C518.242249,165.620239 519.692749,167.216446 521.211914,168.744339 
	C532.885315,180.484467 541.285400,194.025284 543.912903,210.630066 
	C544.526855,214.509766 545.420044,218.855057 541.081360,221.436020 
	C537.093689,223.808151 534.011475,221.111938 531.174561,218.890854 
	C521.470398,211.293152 511.902100,203.522171 502.266144,195.837143 
	C490.784515,186.680161 478.939423,178.016953 465.633545,171.683777 
	C454.182800,166.233582 443.193878,170.220840 430.926636,173.586807 
	C434.853943,176.082932 437.567474,177.684341 440.152985,179.470947 
	C456.732910,190.927628 469.130127,205.391479 473.283936,225.757385 
	C474.044067,229.484238 474.464630,233.123505 470.888855,235.741791 
	C467.261230,238.397995 464.192322,235.987061 461.214386,234.331039 
	C449.696747,227.926117 439.238159,219.858856 428.016113,212.989197 
	C415.937714,205.595261 403.769226,198.367035 390.144043,194.028854 
	C384.206329,192.138321 378.395142,191.772827 372.680054,194.669235 
	C348.757111,206.793396 328.954742,223.207260 317.408478,248.109985 
	C309.098816,266.032043 312.828064,286.302673 326.936340,300.098816 
	C335.931885,308.895355 346.871094,314.483368 358.559448,318.708160 
	C383.645294,327.775391 409.858673,329.863983 436.191406,330.601685 
	C464.530212,331.395599 492.719635,328.768738 520.885376,325.882996 
	C552.664001,322.627075 584.431946,319.305084 615.717651,312.625610 
	C634.670166,308.579193 653.190613,303.202698 669.717651,292.543976 
	C689.759094,279.618683 695.949463,260.617615 687.284973,238.487671 
	C683.528931,228.894272 677.824646,220.600708 670.775574,213.103119 
	C655.453491,196.805908 636.396545,186.489334 615.905823,178.435471 
	C612.887573,177.249130 609.908691,175.732315 606.453491,175.516708 
	C606.364319,177.711975 607.716980,179.105148 608.470886,180.696655 
	C612.219604,188.610657 614.949707,196.799591 614.637451,205.657684 
	C614.500244,209.551743 614.848694,214.180527 610.357056,216.105652 
	C605.726746,218.090225 602.904541,214.410309 600.157776,211.607468 
	C590.714172,201.971313 581.523987,192.083954 571.977234,182.552750 
	C565.125244,175.711914 557.687622,169.527557 547.777344,165.580704 
M420.028809,195.362259 
	C433.700439,202.821762 446.040161,212.440338 459.948334,220.622070 
	C459.569183,216.761139 457.893188,214.271698 456.375000,211.748291 
	C447.925354,197.703888 435.640076,188.090759 420.932129,181.354111 
	C414.821198,178.555161 408.471619,180.959076 404.820862,187.418579 
	C409.678009,189.945831 414.531921,192.471375 420.028809,195.362259 
M487.962708,171.756332 
	C502.739532,181.446899 516.126953,193.000092 530.339966,203.543655 
	C525.408630,188.336472 515.921387,176.795975 502.778503,168.158264 
	C496.328522,163.919235 491.600677,164.325317 485.096680,169.538788 
	C485.890900,170.185318 486.647308,170.801041 487.962708,171.756332 
M599.289062,187.218430 
	C597.207397,182.840973 594.775269,178.671890 591.544861,175.040192 
	C586.878235,169.793762 584.852234,169.405365 577.275574,172.557281 
	C586.264404,180.530518 594.984314,188.265213 603.704224,195.999908 
	C602.438171,193.880951 600.696228,190.989777 599.289062,187.218430 
z"/>
<path fill="#000000" opacity="1.000000" stroke="none" 
	d="
M657.860840,288.956177 
	C651.273987,292.624176 644.593628,295.117432 637.836731,297.455200 
	C634.042297,298.768097 630.623779,298.622101 629.237976,294.387604 
	C627.814575,290.038483 630.921814,287.950256 634.502563,286.823792 
	C642.628601,284.267365 650.343262,280.905273 657.513733,276.256226 
	C664.019958,272.037842 668.849060,266.589966 671.114014,259.063507 
	C671.161804,258.904846 671.241028,258.755676 671.289307,258.597107 
	C672.432373,254.840683 674.889526,252.802200 678.774536,254.078568 
	C682.901855,255.434570 682.881165,258.921844 681.777771,262.341064 
	C679.380005,269.771179 675.216553,276.091034 669.252930,281.165497 
	C665.828369,284.079437 662.130310,286.613586 657.860840,288.956177 
z"/>
<path fill="#000000" opacity="1.000000" stroke="none" 
	d="
M593.575012,297.380493 
	C598.930969,295.954956 603.948364,294.763306 608.950012,293.508850 
	C612.381470,292.648224 615.024963,293.584656 616.061340,297.072662 
	C617.084656,300.516754 615.604187,303.032562 612.119568,303.943787 
	C607.454895,305.163544 602.743225,306.228516 598.012756,307.162201 
	C595.429321,307.672150 592.925049,307.217102 591.529846,304.601715 
	C590.052185,301.831726 590.761292,299.465210 593.575012,297.380493 
z"/>
<path fill="#000000" opacity="1.000000" stroke="none" 
	d="
M630.006409,268.149597 
	C634.546570,265.263153 637.597107,265.660492 639.348267,269.110016 
	C641.041809,272.446045 639.655640,274.806458 636.691528,276.466980 
	C634.559265,277.661469 632.484558,277.214325 630.788086,275.610413 
	C628.620544,273.561157 628.188232,271.127441 630.006409,268.149597 
z"/>
<path fill="#000000" opacity="1.000000" stroke="none" 
	d="
M375.701843,212.673187 
	C379.014954,209.947723 381.795868,210.402817 384.063538,213.388535 
	C385.937592,215.855972 385.489044,218.368622 383.330231,220.477646 
	C381.306854,222.454407 378.895935,222.782761 376.632477,221.039886 
	C373.752838,218.822556 372.964111,216.074051 375.701843,212.673187 
z"/>
<path fill="#000000" opacity="1.000000" stroke="none" 
	d="
M662.688843,250.111923 
	C661.081055,255.576065 657.424561,257.446442 654.084717,254.876129 
	C652.024109,253.290329 651.298645,251.119720 651.987366,248.670670 
	C652.627197,246.395813 654.290527,244.952301 656.697632,244.873215 
	C659.996887,244.764816 661.950256,246.545029 662.688843,250.111923 
z"/>
<path fill="#000000" opacity="1.000000" stroke="none" 
	d="
M401.027039,243.145111 
	C402.836548,246.931335 401.344666,249.361679 398.307587,250.759811 
	C395.605164,252.003891 393.043671,251.249786 391.493469,248.524765 
	C390.082123,246.043747 390.555145,243.572571 392.636658,241.778442 
	C395.598602,239.225449 398.411957,240.024200 401.027039,243.145111 
z"/>
<path fill="#000000" opacity="1.000000" stroke="none" 
	d="
M351.765137,238.663269 
	C348.858337,236.385300 348.281494,233.886292 350.021393,231.069077 
	C351.262787,229.059021 353.222748,228.317703 355.547577,228.662994 
	C358.207031,229.057953 359.531464,230.902771 360.008453,233.302307 
	C360.807495,237.321884 357.537567,239.580444 351.765137,238.663269 
z"/>
</svg>