<svg version="1.1" id="Layer_1" xmlns="http://www.w3.org/2000/svg" xmlns:xlink="http://www.w3.org/1999/xlink" x="0px" y="0px"
	 width="100%" viewBox="0 0 1024 480" enable-background="new 0 0 1024 480" xml:space="preserve">
<path fill="#000000" opacity="1.000000" stroke="none" 
	d="
M469.708679,378.830200 
	C476.597015,370.468964 479.404999,360.421967 484.778503,350.955292 
	C471.137146,344.987915 464.502258,333.363312 457.686981,321.911133 
	C456.012268,319.096985 453.156158,318.103210 450.393890,316.971588 
	C437.690002,311.767334 425.506531,305.606842 415.122803,296.486176 
	C397.171936,280.718811 388.545471,260.178558 385.772156,236.954849 
	C383.194214,215.367386 386.071350,194.480408 395.114899,174.570938 
	C395.663422,173.363388 396.058868,172.080460 396.444916,170.808151 
	C396.578186,170.368927 396.466095,169.855255 396.466095,168.994522 
	C388.705475,168.063675 382.928101,164.659073 381.603394,156.187546 
	C380.403809,148.516571 384.947662,142.983414 389.799316,136.049789 
	C384.876404,136.049789 381.136169,135.999481 377.397797,136.061798 
	C372.027985,136.151306 371.627930,135.532761 373.506012,130.343735 
	C375.225220,125.593727 378.496796,122.059235 382.455475,119.231155 
	C384.907349,117.479538 385.580048,116.242546 384.048126,113.225876 
	C379.996887,105.248123 384.372009,92.079430 392.068481,87.653053 
	C393.270355,86.961830 394.623199,86.355408 395.866425,86.728035 
	C400.143951,88.010178 401.877777,85.729668 403.738068,82.315132 
	C408.844696,72.941940 414.876190,72.221519 422.444489,79.828995 
	C423.644409,81.035088 424.637146,81.144577 425.937622,80.505142 
	C431.122345,77.955887 436.084320,78.098907 440.106110,82.493050 
	C444.368835,87.150452 445.875610,93.018341 443.221466,98.714417 
	C441.001465,103.478760 442.486298,105.650383 446.170441,108.385445 
	C458.686127,117.676918 465.378601,131.113953 471.322906,144.993118 
	C475.448822,154.626465 478.678467,164.643250 484.067108,173.733841 
	C487.614288,179.717941 492.236359,183.928894 499.119324,185.958054 
	C522.743042,192.922501 546.196472,194.520798 569.517273,184.833603 
	C577.455139,181.536270 583.388733,176.715576 586.969910,168.252350 
	C593.052429,153.877533 601.841675,141.111954 614.166138,131.128815 
	C618.421570,127.681824 623.090210,125.484612 628.772827,125.600174 
	C639.643921,125.821251 645.730103,134.310822 642.454285,144.728409 
	C641.766968,146.914352 639.958008,148.724792 640.234802,151.467834 
	C641.164246,151.689667 642.102966,152.032913 643.065674,152.125412 
	C655.952576,153.363647 660.518677,165.961349 655.779907,176.472198 
	C653.934998,180.564194 653.461182,182.993042 657.300049,186.583527 
	C662.415100,191.367676 661.997498,197.941605 659.286255,204.244858 
	C656.240540,211.325760 651.230347,217.155441 646.900818,223.366180 
	C655.430420,231.038879 655.785461,236.168457 648.765625,245.342575 
	C642.676147,253.300797 634.570435,258.867859 626.353882,264.262390 
	C623.544250,266.107025 621.745728,268.355713 620.641541,271.489594 
	C610.696289,299.716156 591.152649,318.960114 564.097534,330.746582 
	C556.524536,334.045715 549.000427,336.793701 544.896240,344.672699 
	C544.306824,345.804291 543.250977,346.922272 542.129822,347.510803 
	C534.188171,351.679565 532.988220,359.447388 531.103271,367.061096 
	C530.032654,371.385529 531.808594,372.525146 535.449585,372.655426 
	C537.254517,372.720001 539.063660,372.666626 541.516541,372.666626 
	C540.395081,378.822418 537.748962,383.168091 532.449890,385.808594 
	C530.899841,386.580963 528.570740,386.577911 528.399292,388.954376 
	C528.215027,391.508392 530.209045,392.723358 532.015320,393.928741 
	C534.778748,395.772919 538.147278,396.674866 540.500916,399.129517 
	C541.868164,400.555420 543.091248,402.162750 544.146545,403.835327 
	C546.198975,407.088226 545.524048,408.811768 541.382935,409.476868 
	C535.365234,410.443329 529.416199,410.626923 523.542114,409.132294 
	C520.387085,408.329529 517.783447,408.738922 515.026733,410.384949 
	C506.793915,415.300812 497.695679,418.024078 488.496490,420.442200 
	C483.725830,421.696198 482.484833,420.616638 483.004486,415.654694 
	C483.156586,414.202454 484.057434,412.786743 482.937897,410.752686 
	C477.779633,410.158783 472.120575,412.027740 466.924927,410.581604 
	C465.435974,407.825409 468.281555,406.242981 467.746094,403.861542 
	C461.814240,405.333649 455.942047,406.990509 449.981110,408.215668 
	C443.676880,409.511383 443.015991,408.636414 444.480896,402.174377 
	C444.659821,401.385223 444.743134,400.574371 444.894440,399.624939 
	C440.010925,397.326355 434.498352,399.417450 429.418945,397.128418 
	C430.103302,391.925964 433.688080,389.207611 437.358185,386.796234 
	C442.069824,383.700531 447.424377,382.597168 453.065521,382.648041 
	C458.768097,382.699493 464.390289,382.183350 469.708679,378.830200 
M638.478271,185.991913 
	C642.212524,181.526077 646.058350,177.145172 647.979614,171.478012 
	C649.018250,168.414230 648.964417,165.470169 646.760315,163.027435 
	C644.440918,160.456940 641.249634,160.778442 638.339355,161.565857 
	C632.834473,163.055283 628.638733,166.547546 625.142944,170.975418 
	C623.391296,173.194183 621.591614,175.391586 619.633667,177.425369 
	C618.244873,178.867966 616.412170,179.243973 614.633606,178.023010 
	C612.735352,176.719925 612.134094,174.811417 613.179688,172.779175 
	C614.160828,170.872177 615.467407,169.119904 616.734741,167.375076 
	C622.304077,159.707031 628.886108,152.737534 633.072266,144.121384 
	C634.283386,141.628693 635.635742,138.735992 633.202332,136.197632 
	C630.630859,133.515289 627.457336,133.931625 624.398315,135.305481 
	C619.584900,137.467270 615.845337,141.044144 612.398499,144.917130 
	C603.900696,154.465546 597.577942,165.396103 592.422913,177.019485 
	C590.968506,180.298660 589.179077,183.177002 586.239868,185.295349 
	C580.398254,189.505524 574.238647,193.087143 567.336182,195.304367 
	C543.997742,202.801193 520.749512,201.705170 497.625763,194.428528 
	C494.379852,193.407074 492.300751,193.385330 489.973175,196.416382 
	C486.681427,200.702972 481.663177,202.118042 476.482330,200.994980 
	C472.777527,200.191895 471.287201,200.974274 469.953491,204.618011 
	C466.819763,213.179565 458.304840,216.426498 449.929108,212.876068 
	C448.450195,212.249176 447.251770,210.805679 445.229065,211.182205 
	C441.211426,215.947342 437.290436,221.186935 430.081757,221.199738 
	C422.732941,221.212799 418.640808,215.976532 414.384827,210.555008 
	C408.729523,216.053253 402.617554,219.364105 395.006836,216.199265 
	C394.612610,216.794952 394.293396,217.055450 394.276764,217.334030 
	C392.769409,242.572495 398.151489,265.661072 415.669769,284.845367 
	C427.844635,298.178009 443.817902,305.441589 460.246887,311.590729 
	C474.718140,317.007172 487.848389,324.005737 497.521912,336.466217 
	C498.930542,338.280670 500.859009,339.717346 502.649567,341.205353 
	C515.578125,351.949341 529.044739,350.526733 539.619934,337.430481 
	C543.953369,332.063995 547.335388,326.193146 549.747314,319.744568 
	C550.521851,317.673798 551.924866,316.254547 554.244812,316.582428 
	C556.700256,316.929413 557.869934,318.641815 558.165710,321.073944 
	C558.271545,321.944672 557.108765,322.915253 558.469971,323.790405 
	C579.826172,314.986816 597.653564,301.295868 607.007568,280.099396 
	C613.052917,266.400574 620.801086,255.848267 633.426941,248.266815 
	C637.659851,245.725021 641.081299,241.823120 643.481323,237.325821 
	C644.148438,236.075562 645.144226,234.571472 643.961670,233.136765 
	C642.867065,231.808731 641.197205,232.059601 639.752869,232.353485 
	C638.302002,232.648758 636.930298,233.318695 635.510071,233.782104 
	C633.019531,234.594696 631.202271,233.612610 630.187744,231.379288 
	C628.894165,228.531631 630.779419,226.645096 632.592407,224.874207 
	C639.290344,218.331955 645.406982,211.334518 649.911560,203.054550 
	C650.869873,201.293076 651.753418,199.516724 651.845215,197.441483 
	C651.943237,195.223724 652.049133,192.985855 649.712158,191.762268 
	C647.315430,190.507370 645.600159,191.898727 643.996399,193.486679 
	C641.747986,195.712814 639.571045,198.018906 637.220642,200.131912 
	C635.377930,201.788574 633.213196,202.855209 631.060364,200.618759 
	C629.139282,198.623077 629.268372,196.377502 631.010986,194.330643 
	C633.276428,191.669769 635.664246,189.113113 638.478271,185.991913 
M471.863190,190.682907 
	C473.419708,191.258865 474.936432,192.015182 476.541870,192.369232 
	C479.058807,192.924271 481.731354,192.988785 483.253510,190.463409 
	C484.675781,188.103699 482.736725,186.407227 481.377686,184.771164 
	C477.293610,179.854584 474.342743,174.282593 471.750183,168.486710 
	C466.993469,157.852707 463.323669,146.747284 457.932495,136.391968 
	C451.632446,124.290894 443.511597,113.849915 430.239532,108.888847 
	C419.788025,104.982109 409.954071,106.303703 401.346954,113.912590 
	C399.221069,115.791916 398.278748,117.289864 400.742920,120.014748 
	C406.593658,126.484451 406.700775,130.053253 402.635406,138.033173 
	C399.853333,143.494125 398.673309,149.371277 399.473938,155.451340 
	C400.191528,160.900848 404.152649,163.564087 409.471069,162.648087 
	C414.305237,161.815475 417.379333,157.229019 416.120300,152.217957 
	C415.396515,149.337280 414.019928,146.626190 413.051392,143.799652 
	C412.306976,141.627151 413.005493,139.810776 415.001862,138.694427 
	C416.695770,137.747192 418.174744,138.400192 419.504456,139.667023 
	C429.185944,148.890594 425.881348,166.905243 413.201569,169.860535 
	C406.134888,171.507553 403.317017,175.078659 401.577362,181.146835 
	C400.249878,185.777481 398.573334,190.309311 397.008972,194.870331 
	C396.067566,197.615021 395.951172,200.450790 396.262482,203.260971 
	C396.845703,208.525650 400.953003,210.251526 405.182373,207.094391 
	C407.777130,205.157455 409.474792,202.484177 411.004059,199.692963 
	C412.003265,197.869278 413.213928,196.272751 415.566772,196.386185 
	C418.160492,196.511230 419.312744,198.386475 419.993011,200.523926 
	C421.117523,204.057175 422.547058,207.416489 425.167206,210.097046 
	C428.643188,213.653229 432.210480,213.444107 435.399689,209.617065 
	C437.254272,207.391617 438.020477,204.636795 439.114868,202.033020 
	C441.096741,197.317902 443.849121,196.661835 447.400543,200.148468 
	C450.394928,203.088211 453.299561,206.774704 457.962036,205.427139 
	C462.878479,204.006165 462.505249,198.948273 463.375824,195.010941 
	C464.615631,189.403946 465.521210,188.770966 471.863190,190.682907 
M523.157104,380.610687 
	C524.697449,380.178223 526.237793,379.745758 528.450073,379.124664 
	C518.229797,372.746338 525.029968,364.295990 525.047668,356.773590 
	C521.475037,355.897278 520.307251,357.567352 519.831482,360.519318 
	C518.721008,367.409180 517.474060,374.277435 516.242065,381.147217 
	C513.673889,395.468170 507.433838,400.807281 492.938599,401.398651 
	C489.202087,401.551117 485.485535,402.193909 481.759827,402.611450 
	C489.116699,403.596008 496.421021,400.572601 504.265228,402.764282 
	C501.951721,407.391266 497.654175,408.369965 494.703735,410.928253 
	C498.854645,409.487579 503.145508,408.324280 506.763123,406.077118 
	C513.888489,401.651062 520.923706,398.164001 529.503052,402.475769 
	C519.282776,395.397003 516.921143,388.249420 523.157104,380.610687 
M426.206055,89.899658 
	C424.446594,91.164291 422.748871,92.547310 420.349670,92.268639 
	C415.171478,91.667191 417.198883,85.820969 414.279602,83.599724 
	C410.409119,86.079285 410.409119,86.079292 408.060608,92.278549 
	C405.988434,97.748329 403.871735,98.691078 398.760071,96.373573 
	C397.708588,95.896881 396.787537,95.192299 395.505646,95.858650 
	C391.938904,97.712784 389.961517,106.893425 392.672119,110.375809 
	C403.202606,99.676247 415.625977,95.451813 430.412292,99.667374 
	C432.790833,100.345490 434.328613,98.882149 435.058380,96.868362 
	C436.106598,93.975777 436.581268,90.819855 434.084137,88.467209 
	C431.514008,86.045799 429.151733,88.336792 426.206055,89.899658 
M494.684845,358.317535 
	C495.563232,356.077484 497.684662,354.380371 497.797882,351.699951 
	C494.697601,350.731445 493.034546,351.755890 491.774597,354.541443 
	C488.351685,362.108917 484.600342,369.527069 481.110229,377.065094 
	C477.435547,385.001770 470.939484,388.568848 462.592010,389.392792 
	C457.371735,389.907990 452.144989,390.357574 446.921173,390.836578 
	C453.077301,391.801788 459.377747,388.948822 465.764099,391.873993 
	C463.506134,396.141113 459.021820,396.262054 456.406586,398.810577 
	C467.646149,397.868103 476.595581,385.822113 489.482086,392.698425 
	C486.651398,389.032654 483.441162,385.894714 484.028809,381.156372 
	C484.645874,376.180939 487.498413,373.221344 493.365631,373.243408 
	C488.810852,367.639496 491.867950,363.334198 494.684845,358.317535 
M505.628265,355.317017 
	C505.173218,356.009247 504.668427,356.674133 504.270660,357.397858 
	C498.893555,367.181335 498.897919,367.182617 506.608795,374.455200 
	C506.704987,374.545959 506.681793,374.763275 506.786346,375.271545 
	C503.720306,380.275146 497.949158,380.604767 492.780975,382.157227 
	C493.693481,386.129364 497.198608,386.828857 499.512207,388.772949 
	C502.853424,391.580475 504.932678,390.324127 506.191528,386.716980 
	C509.222595,378.031586 510.578033,368.987732 511.613312,359.901611 
	C512.053955,356.034302 509.863617,354.519928 505.628265,355.317017 
M489.786682,340.907379 
	C484.835510,334.973999 479.447479,329.614471 471.934479,327.013489 
	C475.398285,333.954987 480.184265,339.439514 487.577057,342.160736 
	C488.569611,342.526123 488.588867,342.473785 489.786682,340.907379 
M393.848206,123.886566 
	C388.927216,121.555122 386.953735,125.447380 383.766113,128.296753 
	C388.558716,129.811600 392.781799,129.892883 397.439636,130.052338 
	C397.222595,127.392036 396.042633,125.717644 393.848206,123.886566 
z"/>
<path fill="#000000" opacity="1.000000" stroke="none" 
	d="
M451.772980,254.195099 
	C462.134308,273.321106 478.803589,282.164276 499.238129,284.662567 
	C529.473083,288.359070 557.646729,280.469330 584.939148,268.408722 
	C587.289917,267.369934 591.080139,266.104340 589.202820,262.405396 
	C587.651672,259.349091 584.633057,259.576477 581.353943,260.756836 
	C567.065857,265.900085 552.133240,266.948761 537.101929,266.939087 
	C534.028748,266.937103 530.622437,266.296265 530.899658,262.156311 
	C531.163208,258.220032 534.395752,257.795258 537.588745,257.854126 
	C549.968201,258.082428 562.185059,256.789337 574.208313,253.833725 
	C576.226807,253.337494 579.067871,253.258392 579.421448,250.728516 
	C579.830505,247.801697 576.852417,247.195221 574.835571,246.244003 
	C570.109741,244.015015 565.365417,242.631714 559.935547,244.216095 
	C554.792908,245.716660 549.400940,245.573318 544.081116,244.604797 
	C541.312744,244.100800 539.246704,242.822296 539.462097,239.740982 
	C539.685669,236.542236 542.098999,235.821075 544.836487,235.813721 
	C548.667542,235.803436 552.499023,235.853043 556.329468,235.807236 
	C558.308777,235.783569 560.339600,235.773636 561.912903,234.070694 
	C561.660889,231.397873 559.379211,230.684875 557.614563,229.685333 
	C551.629639,226.295349 545.101868,224.280304 538.498108,222.495316 
	C537.055054,222.105255 535.574097,221.790161 534.200806,221.222321 
	C531.970703,220.300186 530.586609,218.606308 531.331360,216.121262 
	C532.112854,213.513519 534.178223,212.397202 536.810120,213.055557 
	C546.191711,215.402283 555.508423,217.999542 563.862488,223.087082 
	C567.798401,225.484024 571.144958,228.483063 571.470947,233.549789 
	C571.626709,235.970825 573.618286,236.249008 575.228882,236.988373 
	C579.612915,239.000885 585.050415,240.334610 587.034729,244.849197 
	C589.249146,249.887405 592.643494,253.337845 596.422852,256.993286 
	C600.516663,260.952942 599.982727,266.511383 596.087585,270.958069 
	C592.797180,274.714294 588.398438,276.810822 583.934937,278.623688 
	C558.878601,288.800201 533.098816,295.823395 505.759064,294.201691 
	C483.457214,292.878815 463.802460,285.398285 449.554077,267.108398 
	C444.028870,260.016052 440.657715,251.903122 438.949005,243.111557 
	C438.383575,240.202347 438.389313,237.008041 441.935455,236.139801 
	C445.623383,235.236847 446.736542,238.071136 447.385376,241.085770 
	C448.333282,245.490112 449.651398,249.783249 451.772980,254.195099 
z"/>
<path fill="#000000" opacity="1.000000" stroke="none" 
	d="
M414.292236,114.611176 
	C419.158081,115.477859 421.021301,117.950813 419.433929,120.947426 
	C418.512756,122.686394 417.029175,123.597801 415.025116,123.494080 
	C412.942780,123.386314 411.660706,122.133682 411.183014,120.251930 
	C410.539978,117.718567 411.442230,115.763596 414.292236,114.611176 
z"/>
</svg>