<svg version="1.1" id="Layer_1" xmlns="http://www.w3.org/2000/svg" xmlns:xlink="http://www.w3.org/1999/xlink" x="0px" y="0px"
	 width="100%" viewBox="0 0 1024 480" enable-background="new 0 0 1024 480" xml:space="preserve">
<path fill="#000000" opacity="1.000000" stroke="none" 
	d="
M369.000916,335.181213 
	C332.473450,325.821320 297.610626,313.275055 264.934692,295.090973 
	C257.776398,291.107422 251.110153,286.403564 245.436218,280.416229 
	C244.634033,279.569733 243.739044,278.781250 243.084396,277.830109 
	C240.386826,273.910614 236.185333,270.038788 238.414825,264.902588 
	C240.579224,259.916351 246.063705,261.254486 250.411179,260.741272 
	C251.666611,260.593048 253.038620,261.109955 254.653809,259.831665 
	C250.326782,257.609619 246.185928,255.625565 242.183319,253.393600 
	C236.501694,250.225388 235.552139,247.181564 238.655777,241.518448 
	C243.715897,232.285507 251.313904,225.219299 259.309113,218.661743 
	C288.373535,194.823486 321.698608,179.282227 357.556763,168.791580 
	C377.908691,162.837418 398.734375,159.312958 419.781555,157.068405 
	C423.279938,156.695312 425.463104,154.979416 427.666626,152.523315 
	C442.962555,135.473770 459.345490,119.653709 479.286865,107.983170 
	C481.727295,106.554939 484.284332,105.324875 486.796478,104.020493 
	C498.889496,97.741440 510.049225,98.414986 521.322998,106.823395 
	C538.414124,119.570549 555.089355,132.902252 572.851685,144.737259 
	C577.006287,147.505493 581.339172,150.006012 585.586548,152.635300 
	C591.117615,156.059265 590.961365,160.381699 585.201111,163.536728 
	C582.281555,165.135864 579.357605,166.727798 576.462463,168.370178 
	C575.901062,168.688614 575.463684,169.225708 575.028931,169.609253 
	C574.997131,171.050369 575.992737,171.376450 576.939209,171.660782 
	C608.353149,181.097656 637.714050,195.380493 667.053894,209.731613 
	C673.333069,212.802948 679.808960,215.436401 686.669556,217.064346 
	C694.763000,218.984848 702.046875,217.943207 708.803406,212.690643 
	C721.036804,203.180222 732.205383,192.385941 744.830566,183.342896 
	C763.703186,169.824966 784.378540,160.786469 807.352905,157.097153 
	C810.584717,156.578171 813.404602,156.908096 815.295837,159.801331 
	C817.270508,162.822128 816.090271,165.435501 814.005554,167.959381 
	C805.832581,177.854202 801.662415,189.606155 798.972473,201.885056 
	C795.782776,216.445236 789.170410,229.075134 778.809448,239.709961 
	C776.267761,242.318771 776.281128,244.333679 778.755310,246.843994 
	C790.655823,258.918274 797.680786,273.630280 802.132812,289.807220 
	C804.806763,299.523285 809.160278,308.494812 815.440796,316.470245 
	C817.306213,318.839111 819.301086,321.315277 817.285339,324.575165 
	C815.326721,327.742523 812.320862,327.830200 808.955261,327.631653 
	C780.258545,325.938690 756.337280,313.175293 734.401062,295.731812 
	C728.662964,291.168915 722.761597,286.795013 717.220642,282.004303 
	C708.852722,274.769379 699.433228,273.447052 689.159058,276.364441 
	C680.490540,278.825928 672.370422,282.536407 664.315247,287.562408 
	C666.668945,290.388275 669.666016,291.108337 672.177185,292.536255 
	C676.798889,295.164276 677.676208,298.506714 674.329285,302.725433 
	C669.471130,308.849121 663.566040,314.073975 659.088074,320.558228 
	C655.756653,325.382294 652.576965,330.277252 650.770935,335.863312 
	C649.258484,340.541412 646.254150,342.033630 641.613647,341.424652 
	C626.362122,339.423187 612.023193,334.847931 599.344177,325.978638 
	C596.115295,323.719910 593.495850,323.187286 589.775330,324.679901 
	C566.496460,334.019470 542.376404,340.275208 517.556641,343.905029 
	C514.818115,344.305542 511.859772,343.629425 508.915192,345.483887 
	C510.378357,350.983795 512.840027,356.260864 513.557190,362.044189 
	C514.052917,366.041443 514.262817,370.007477 514.131897,373.998352 
	C513.919373,380.478088 511.421387,382.966003 505.059387,382.182251 
	C481.209137,379.244110 460.514343,369.783691 444.770935,351.219635 
	C441.510010,347.374451 438.154846,345.663818 433.423645,345.386688 
	C411.757507,344.117615 390.502991,340.184418 369.000916,335.181213 
M283.308716,275.053680 
	C274.203186,270.981445 264.732086,272.371490 254.600784,272.297943 
	C256.893188,276.030060 259.496613,277.868927 262.104889,279.588165 
	C286.531647,295.689026 313.615326,305.940857 341.080719,315.347412 
	C343.582306,316.204132 345.623383,315.194366 347.712952,314.098846 
	C357.299774,309.072693 365.485260,302.411926 371.972351,293.679291 
	C380.081757,282.762848 386.343506,270.851318 391.060699,258.144073 
	C395.295258,246.736923 395.270264,235.722839 387.543976,225.456894 
	C382.738068,219.071259 378.302124,212.406631 373.720947,205.852676 
	C371.638062,202.872833 370.465851,199.665421 373.882965,197.001434 
	C377.581970,194.117691 380.506073,196.378616 382.810181,199.313721 
	C389.605377,207.969818 396.079346,216.874664 401.410889,226.517731 
	C405.121460,233.228912 406.828613,240.396179 405.332581,248.178558 
	C401.472168,268.260559 392.131897,285.725403 380.006012,301.890259 
	C374.691254,308.975281 368.045837,314.703461 360.329712,320.234222 
	C365.926025,323.186279 371.396759,323.743591 376.620178,325.050720 
	C393.447449,329.261780 410.567352,331.780731 427.795685,333.574982 
	C429.993530,333.803925 432.961456,335.003357 433.828094,331.144409 
	C434.439362,328.422699 436.279846,326.830078 439.162384,326.764954 
	C442.278534,326.694489 443.846466,328.633881 445.139343,331.216156 
	C456.167999,353.244385 475.201965,364.247681 498.292755,369.582977 
	C501.514130,370.327271 502.857605,369.135925 502.580963,365.634338 
	C501.577087,352.928192 495.581818,344.061798 483.429504,339.539124 
	C476.878723,337.101135 470.383942,334.494507 463.962891,331.733704 
	C460.892639,330.413605 459.130798,327.849487 460.628540,324.465698 
	C462.100281,321.140656 464.909821,319.802795 468.464142,321.253510 
	C476.786377,324.650177 485.171661,327.926331 493.305969,331.733002 
	C496.619141,333.283539 499.728119,334.167816 503.330231,333.815308 
	C532.514587,330.959473 560.675842,324.006226 587.969360,313.277527 
	C611.948853,303.851593 634.022461,290.760742 656.513611,278.441284 
	C672.497437,269.686188 688.548035,261.487854 707.897949,263.581421 
	C715.717041,264.427399 723.393616,254.116058 722.509216,245.792526 
	C721.447327,235.798019 711.683838,226.895599 703.236206,228.760178 
	C694.767761,230.629349 686.687866,229.523331 678.680908,226.898666 
	C664.844299,222.363083 652.159485,215.247452 639.148865,208.892670 
	C593.693665,186.690842 546.249084,171.401688 495.558472,167.469772 
	C457.649414,164.529297 419.998322,166.823990 382.759369,174.486725 
	C342.593079,182.751831 305.452789,198.141052 272.487885,222.887756 
	C264.376160,228.977219 256.862823,235.726196 250.871429,244.014648 
	C252.166672,245.843781 253.813324,246.295364 255.267380,247.047119 
	C263.258026,251.178192 271.315552,255.188293 279.200409,259.512939 
	C284.886780,262.631744 290.640411,265.726837 295.590240,270.000275 
	C297.984985,272.067810 298.973572,274.652924 296.776184,277.473785 
	C294.621704,280.239655 291.876465,280.804138 288.844299,278.913177 
	C287.151031,277.857208 285.572052,276.617981 283.308716,275.053680 
M726.743958,274.786407 
	C729.965881,277.423798 733.175049,280.077026 736.411926,282.695892 
	C753.489014,296.512848 771.394714,308.828339 793.273071,313.886078 
	C795.151917,314.320404 797.055603,315.371979 799.398499,313.827087 
	C797.508484,309.331940 795.135925,304.923065 793.768311,300.221832 
	C787.956970,280.245239 779.476562,261.896027 763.830994,247.497864 
	C760.457520,244.393387 761.310059,240.824860 764.489197,237.919632 
	C777.305847,226.207184 785.711060,212.097046 788.887329,194.858795 
	C790.354797,186.894531 793.897522,179.509338 797.673706,171.069382 
	C764.940918,178.747406 741.919434,199.428635 718.837952,219.994064 
	C722.141663,224.897583 725.061279,224.468521 729.015808,221.375961 
	C740.473328,212.415741 753.146484,205.383209 766.293579,199.202835 
	C767.197205,198.778015 768.109558,198.365952 769.039795,198.004288 
	C772.960388,196.479874 776.593994,197.677963 777.756531,201.088028 
	C779.044495,204.865875 777.041443,207.056458 773.751770,208.496552 
	C760.424072,214.330963 747.905579,221.578262 736.249512,230.277908 
	C734.294250,231.737259 731.038269,232.600235 732.207886,236.264359 
	C733.467529,240.210556 736.794434,238.676956 739.398438,238.866821 
	C742.215027,239.072159 745.096008,238.726761 747.865417,239.157822 
	C751.000183,239.645721 753.029419,241.833694 752.827026,245.080963 
	C752.625854,248.308624 750.476929,250.154984 747.192383,250.311218 
	C744.365845,250.445663 741.528015,250.330765 738.699280,250.435349 
	C736.794434,250.505783 734.478760,249.837646 733.552917,252.371368 
	C732.530884,255.168503 734.391357,256.607971 736.349854,258.082397 
	C747.594360,266.547699 759.650146,273.515289 772.887268,278.414978 
	C777.652344,280.178802 779.565613,283.376617 777.882507,286.605194 
	C775.866211,290.472900 772.635620,290.439941 768.891418,289.095459 
	C755.449890,284.268829 743.220459,277.256805 731.668030,268.955719 
	C726.738892,265.413879 725.656433,265.744873 722.844360,271.467865 
	C723.940674,272.413361 725.068787,273.386261 726.743958,274.786407 
M477.206329,122.727036 
	C463.950958,131.690460 452.441437,142.564621 441.357513,154.746292 
	C446.436371,154.746292 450.742889,154.533203 455.017914,154.808914 
	C458.941284,155.061951 461.477386,153.511322 463.868896,150.479034 
	C471.866516,140.338470 481.454926,131.833771 492.061615,124.505150 
	C495.339569,122.240273 498.823456,120.230492 502.370972,118.412025 
	C505.262268,116.929947 508.138306,117.575737 509.700439,120.503151 
	C511.270660,123.445740 510.856934,126.347305 507.692596,128.282166 
	C505.703186,129.498627 503.663666,130.633377 501.679260,131.857620 
	C492.012573,137.821091 483.604431,145.212204 475.496185,154.467331 
	C480.716553,154.931488 484.979797,155.149368 489.193390,155.728775 
	C493.752960,156.355759 497.025635,154.818787 500.087250,151.352234 
	C506.420013,144.181793 514.100403,138.599289 522.466675,133.951904 
	C525.564087,132.231339 528.392029,132.384995 530.361023,135.359085 
	C532.507812,138.601685 531.250427,141.427460 528.247681,143.492264 
	C525.779358,145.189651 523.043823,146.528061 520.705750,148.378235 
	C517.339172,151.042252 513.245422,153.027344 510.848846,157.378952 
	C515.720093,158.151489 520.000732,158.740784 524.243530,159.532623 
	C527.431396,160.127579 529.946228,159.488892 532.397644,157.139755 
	C535.389160,154.273071 538.778748,151.791962 542.155457,149.365860 
	C545.212585,147.169388 548.447021,146.756149 550.869690,150.297226 
	C553.221252,153.734421 551.277466,156.206680 548.553223,158.345291 
	C546.962036,159.594452 544.676636,160.209412 544.206726,162.646088 
	C558.069092,167.842606 562.223511,167.015381 570.866028,157.333221 
	C562.967712,151.766205 554.998657,146.334824 547.230957,140.629364 
	C536.491882,132.741501 525.771545,124.816399 515.297424,116.583687 
	C507.915588,110.781487 500.497345,109.848373 492.114349,114.160591 
	C487.214386,116.681152 482.467468,119.411842 477.206329,122.727036 
M628.158447,307.721191 
	C630.182617,310.683838 633.839172,310.737549 636.564575,312.444244 
	C639.351501,314.189514 641.240112,316.565186 639.585571,319.897644 
	C638.077820,322.934509 635.391907,323.993439 632.014954,322.778198 
	C627.302124,321.082275 622.723022,319.042267 618.636719,316.175446 
	C614.617859,313.355927 611.692139,314.769409 608.639893,317.687103 
	C610.115662,320.042328 612.429749,320.714081 614.450623,321.723724 
	C621.329956,325.160645 628.607666,327.345886 636.140991,328.927155 
	C639.354004,329.601562 640.977173,329.082062 642.335876,326.033997 
	C645.399109,319.162109 649.793823,313.130493 654.670288,307.398438 
	C656.525269,305.217926 658.987488,303.275757 659.636658,300.295563 
	C652.075928,293.715240 650.744324,293.555145 646.081848,298.697296 
	C647.067566,299.343781 648.066345,299.913940 648.970215,300.607788 
	C651.574219,302.606812 653.250977,305.061707 651.250854,308.286407 
	C649.398438,311.272827 646.579712,311.835358 643.428589,310.341370 
	C641.328918,309.345917 639.018982,308.548279 637.279419,307.092804 
	C634.124573,304.453278 631.363525,304.751373 628.158447,307.721191 
z"/>
<path fill="#000000" opacity="1.000000" stroke="none" 
	d="
M434.432556,219.472412 
	C429.347961,220.064117 424.727325,220.652283 420.096588,221.145615 
	C416.458282,221.533249 413.549377,220.169510 413.138733,216.379532 
	C412.707642,212.401016 415.288025,210.314224 419.124939,209.821777 
	C445.789276,206.399628 472.509613,205.770569 499.346619,207.533188 
	C527.968140,209.413025 556.239075,213.490326 584.195740,219.799377 
	C604.009460,224.270767 623.602234,229.588959 642.993591,235.645355 
	C645.813110,236.525955 648.401855,237.648605 649.119202,240.847015 
	C650.143555,245.414322 645.991455,248.307785 640.450562,246.761368 
	C629.069214,243.584976 617.767395,240.116913 606.355225,237.058472 
	C556.562195,223.714005 506.006714,216.410980 454.331024,218.302612 
	C447.846375,218.539978 441.371521,219.046265 434.432556,219.472412 
z"/>
<path fill="#000000" opacity="1.000000" stroke="none" 
	d="
M427.377960,267.538574 
	C425.523071,268.012756 424.066223,268.364471 422.617767,268.748108 
	C418.850098,269.745972 415.333160,269.572296 414.154297,265.153259 
	C412.952820,260.649414 416.203552,258.837219 419.812103,257.870392 
	C426.078552,256.191467 432.353302,254.475601 438.713257,253.226990 
	C455.573669,249.916885 472.519867,247.385010 489.779938,249.698090 
	C503.337219,251.514954 505.267487,255.158142 498.955780,267.428864 
	C492.269470,280.427856 482.574066,290.834198 470.725677,299.257721 
	C462.988647,304.758270 454.483337,306.571960 445.123474,304.248718 
	C437.164948,302.273315 429.626526,299.178284 422.072021,296.101715 
	C418.604523,294.689575 416.396790,292.412781 417.757721,288.372284 
	C418.918396,284.926178 422.309937,283.844666 426.534882,285.658722 
	C434.197174,288.948669 441.832153,292.218109 450.221527,293.295166 
	C453.104858,293.665375 455.946777,293.826782 458.569733,292.634460 
	C472.373108,286.359619 480.879578,274.904694 489.593781,261.341644 
	C467.483063,258.528412 447.608612,262.717896 427.377960,267.538574 
z"/>
<path fill="#000000" opacity="1.000000" stroke="none" 
	d="
M321.104095,214.565552 
	C330.325134,220.266266 333.644043,229.179047 330.009552,237.689880 
	C326.764069,245.289780 317.987244,249.748123 309.835419,247.937698 
	C300.529297,245.870926 294.127686,235.964584 296.382935,227.120285 
	C299.032074,216.731186 308.465881,210.930145 318.388489,213.601898 
	C319.189209,213.817520 319.962891,214.133728 321.104095,214.565552 
M312.189575,224.639267 
	C308.843719,226.230469 306.723877,228.645538 307.919434,232.523178 
	C308.944855,235.849075 311.588928,237.241394 314.963959,236.565689 
	C318.077667,235.942276 319.950165,233.967941 319.757599,230.577591 
	C319.514130,226.291382 317.085266,224.373917 312.189575,224.639267 
z"/>
<path fill="#000000" opacity="1.000000" stroke="none" 
	d="
M357.325439,232.676300 
	C361.592072,227.713409 365.736786,228.208969 368.155792,233.671829 
	C378.632996,257.332703 369.423126,277.434418 353.186493,292.467834 
	C350.824951,294.654419 348.015106,294.957153 345.593658,292.522064 
	C343.078766,289.992981 343.181366,287.200500 345.550293,284.532806 
	C347.537384,282.295135 349.643768,280.156860 351.535645,277.842407 
	C360.726624,266.598633 364.142944,254.271271 358.523651,240.236908 
	C357.613434,237.963577 356.382111,235.666061 357.325439,232.676300 
z"/>
<path fill="#000000" opacity="1.000000" stroke="none" 
	d="
M446.345520,290.674866 
	C441.938660,289.547852 437.914948,288.533478 433.879303,287.569000 
	C430.823639,286.838654 428.521820,285.351440 428.925598,281.832184 
	C429.142731,279.939545 428.179901,279.213928 426.906219,278.303680 
	C425.023438,276.958221 423.919830,275.103485 424.694580,272.703033 
	C425.503906,270.195404 427.452942,269.088837 429.986359,268.862122 
	C442.407928,267.750458 454.822296,267.005737 467.272003,268.633362 
	C470.742645,269.087097 473.230652,270.560150 472.902557,274.178741 
	C472.571960,277.824463 469.587860,279.052368 466.307617,278.729309 
	C458.206024,277.931366 450.117615,278.225708 441.885712,278.993835 
	C444.505615,279.697479 447.133057,280.374542 449.743652,281.111176 
	C453.402588,282.143616 457.506683,283.440033 455.896149,288.284790 
	C454.403534,292.774689 450.476196,292.414764 446.345520,290.674866 
z"/>
<path fill="#000000" opacity="1.000000" stroke="none" 
	d="
M465.694885,350.390778 
	C462.509064,347.953644 459.487000,345.865082 456.794434,343.414490 
	C454.020874,340.890198 453.040955,337.774109 456.033356,334.718445 
	C458.787811,331.905762 461.661163,332.507843 464.358826,335.033173 
	C470.759460,341.024933 478.102600,345.405060 486.450745,348.152161 
	C489.909515,349.290314 492.698334,351.617157 491.303650,355.515594 
	C489.874207,359.511139 486.375763,359.784180 482.552521,358.555725 
	C476.650604,356.659363 471.174805,353.954285 465.694885,350.390778 
z"/>
</svg>