<svg version="1.1" id="Layer_1" xmlns="http://www.w3.org/2000/svg" xmlns:xlink="http://www.w3.org/1999/xlink" x="0px" y="0px"
	 width="100%" viewBox="0 0 1024 480" enable-background="new 0 0 1024 480" xml:space="preserve">
<path fill="#000000" opacity="1.000000" stroke="none" 
	d="
M398.322021,360.463501 
	C397.616638,346.376587 394.235474,333.414398 388.887177,320.879761 
	C387.578186,317.811890 385.712036,316.119171 382.527405,315.288879 
	C371.844971,312.503662 361.574982,308.643463 352.054169,302.952362 
	C351.060120,302.358185 349.997711,301.709656 348.889038,301.501282 
	C332.036804,298.333221 318.097504,289.182373 304.283813,279.804138 
	C301.191681,277.704834 298.149323,276.199799 294.216095,276.080261 
	C289.425903,275.934601 285.782898,273.287628 283.492218,268.961609 
	C279.243042,260.936951 278.803345,252.309662 280.138306,243.645157 
	C281.043640,237.769043 285.738800,234.396469 292.524017,234.190659 
	C298.894226,233.997437 305.115540,233.414032 311.191681,231.306641 
	C318.777710,228.675568 324.797424,224.373352 328.107819,216.813492 
	C328.439117,216.056992 328.911499,215.349319 329.396332,214.675064 
	C333.033447,209.616882 334.266571,205.004623 331.469849,198.387070 
	C328.104279,190.423386 328.914093,181.085297 325.428101,172.776840 
	C323.819122,168.942093 327.567322,165.770126 332.039337,167.074219 
	C343.789093,170.500534 356.306061,172.328308 365.366638,182.296783 
	C368.499908,179.020157 367.593781,174.902145 368.639252,171.406998 
	C369.159027,169.669235 369.139008,167.775070 369.600922,166.014023 
	C370.791199,161.476471 373.610260,160.132599 377.845764,162.262939 
	C382.787201,164.748367 387.137085,168.174805 391.196777,171.876511 
	C393.929565,174.368347 396.657074,175.015976 400.287292,174.352020 
	C433.851532,168.213257 467.451721,162.128998 501.454834,159.056152 
	C536.897400,155.853241 572.338074,155.295563 607.143921,164.659439 
	C631.088745,171.101334 652.884705,181.265533 668.370972,201.757034 
	C669.162598,202.804489 669.914062,204.034027 672.222534,203.124786 
	C668.172119,197.642853 663.812073,192.184265 667.096863,184.799759 
	C668.515198,181.611298 670.644043,179.171387 673.745422,177.634842 
	C681.980774,173.554764 688.216553,177.228378 695.995911,190.718613 
	C697.840698,190.063248 698.724182,188.392899 699.878601,187.018738 
	C700.947205,185.746689 702.280945,185.209244 703.878540,185.708435 
	C705.519531,186.221207 706.052429,187.563324 706.307068,189.152832 
	C707.316345,195.453934 703.781372,202.226227 697.425598,204.999939 
	C694.236023,206.391922 691.752869,208.113327 689.915039,211.118652 
	C687.867249,214.467209 684.618286,216.655869 681.086121,218.244263 
	C678.389465,219.456955 677.891541,221.214279 678.721802,223.866135 
	C685.575317,245.757080 681.185120,266.638672 672.939331,287.159119 
	C669.653198,295.336914 665.549194,303.171814 663.225647,311.756439 
	C661.534485,318.004669 662.846558,323.788574 665.642944,329.145569 
	C668.546875,334.708496 668.538513,339.946686 665.830566,345.340424 
	C659.397461,358.154175 655.698120,371.705383 654.551575,385.985321 
	C654.172485,390.706390 652.864441,394.655762 646.807007,394.040314 
	C644.847412,393.841217 644.518127,395.667725 643.742493,396.869507 
	C637.783691,406.101166 626.620300,408.728210 617.233521,403.326599 
	C613.509094,401.183380 612.538086,398.532379 615.158081,395.210907 
	C623.995239,384.007721 626.764282,370.716736 628.540894,357.084839 
	C629.105103,352.756073 629.126038,348.398895 624.967468,344.615387 
	C620.757446,356.381073 613.682129,366.664215 612.235291,379.172058 
	C611.646240,384.265137 610.862122,389.454834 603.507324,388.644379 
	C601.896179,388.466827 601.265442,390.438446 600.378235,391.598328 
	C595.519043,397.950470 583.266602,400.933289 575.932251,397.521362 
	C571.402527,395.414154 570.372742,391.775574 573.609863,387.324860 
	C580.184692,378.285217 584.431030,368.299622 587.035583,357.479095 
	C588.225708,352.534454 587.447815,348.217163 584.340881,344.324677 
	C581.119568,340.288818 577.708435,336.404449 574.487183,332.368561 
	C573.012512,330.520966 571.461060,330.273895 569.235962,330.930817 
	C546.367493,337.682373 523.182495,336.849152 499.914276,333.634033 
	C492.166443,332.563416 484.410706,331.542633 476.679810,330.360291 
	C473.174927,329.824219 471.200836,330.715332 470.079498,334.449829 
	C467.878571,341.779877 465.062866,348.923218 462.603638,356.178436 
	C459.615417,364.994293 459.273407,374.144196 459.686462,383.315399 
	C459.830505,386.513824 459.760040,389.642548 459.188232,392.757050 
	C458.615112,395.878448 456.737762,398.220825 453.493530,397.948883 
	C450.721161,397.716553 450.142120,399.265686 449.196564,401.052521 
	C445.129333,408.738739 435.029022,413.464722 426.761169,410.975311 
	C423.590393,410.020660 420.545319,407.877167 418.072205,405.593842 
	C415.600983,403.312195 417.522583,400.666229 418.992004,398.406067 
	C422.693695,392.712463 427.394379,387.617401 428.916077,380.658203 
	C430.139252,375.064209 429.968109,369.559479 428.868042,364.018799 
	C427.288696,369.976959 426.724152,376.033417 426.362823,382.115540 
	C426.121552,386.176331 425.014282,389.510773 419.981537,389.088593 
	C418.021637,388.924133 417.417542,390.291504 416.563599,391.482758 
	C411.910553,397.973663 399.753845,401.404449 392.400787,398.297150 
	C387.559540,396.251312 386.538330,392.523895 390.399048,387.935089 
	C397.078613,379.995789 398.965790,370.872559 398.322021,360.463501 
M673.662598,188.559509 
	C672.608948,193.750183 675.574097,196.562378 679.643860,198.777130 
	C684.594360,201.471237 684.687988,203.378540 680.267273,206.921051 
	C678.324158,208.478195 675.497009,208.913910 674.546997,211.858200 
	C679.630859,211.901642 683.130310,208.965164 685.599365,204.945648 
	C687.228271,202.293777 689.014404,200.307526 692.369019,199.566498 
	C688.683838,199.738083 688.878906,197.398560 688.698914,195.140015 
	C688.356384,190.840485 686.907349,187.076675 682.409790,184.618057 
	C678.714905,183.458344 675.960632,184.678940 673.662598,188.559509 
M583.275879,280.215546 
	C587.532043,296.243835 596.918091,308.986206 609.064270,319.828217 
	C615.023499,325.147552 621.419250,329.976807 627.599243,335.049957 
	C633.607422,339.982025 637.042786,346.160095 636.660767,354.127930 
	C636.047791,366.911896 633.481140,379.204865 627.286072,390.544556 
	C626.206482,392.520782 626.039795,394.566467 626.018250,396.840973 
	C631.177673,397.475677 635.132751,396.325470 637.725159,391.375092 
	C639.764648,387.480621 640.424377,382.103638 646.477478,381.589447 
	C646.906921,381.552948 647.462830,379.908661 647.514648,378.987000 
	C648.267456,365.579742 653.231079,353.416962 658.599609,341.385956 
	C659.770813,338.761200 659.954407,336.354828 658.669006,333.738464 
	C652.977478,322.153961 653.718323,310.637634 658.855042,299.036194 
	C664.308105,286.720123 670.056885,274.457977 672.280273,261.019104 
	C677.125732,231.731186 669.373474,207.238922 644.362305,189.642944 
	C631.226685,180.401733 616.368530,174.946442 600.882507,171.314621 
	C562.681580,162.355713 524.167114,164.337585 485.660095,168.766647 
	C462.846924,171.390640 440.261993,175.597336 417.627838,179.421097 
	C412.649536,180.262131 407.423889,180.342499 402.436798,182.914444 
	C403.600220,185.460617 404.696533,187.672516 405.635925,189.949188 
	C409.162903,198.497025 407.733124,208.444107 402.174011,213.768402 
	C400.508698,215.363388 398.632904,217.391556 396.169159,215.310287 
	C394.016205,213.491531 395.095123,211.227066 396.404999,209.472931 
	C399.629211,205.155258 400.886383,200.217300 399.298981,195.295670 
	C395.673950,184.056320 386.769958,177.516769 376.618073,170.833130 
	C375.459412,181.046677 370.450195,189.544617 372.807220,199.226120 
	C373.273346,201.140900 372.397522,202.948242 370.333130,203.583557 
	C368.146301,204.256546 367.004730,202.675995 365.931824,201.124741 
	C364.600464,199.199799 364.939941,196.538589 362.819000,194.444962 
	C355.499939,197.135193 349.239441,201.453125 343.901276,207.380936 
	C336.536560,215.559143 333.940125,227.019455 324.982727,233.616318 
	C326.028015,236.395096 329.367645,238.270599 327.213348,240.768463 
	C324.695312,243.688065 322.466797,240.386276 320.275970,239.336685 
	C318.250580,238.366333 316.375702,237.466599 314.286926,239.155060 
	C314.122375,241.354095 317.977051,243.256775 315.224091,245.337082 
	C312.436371,247.443665 310.882568,244.083618 308.894012,242.948486 
	C307.040680,241.890518 305.388062,240.321915 302.685120,242.216858 
	C309.007294,250.161148 311.888672,258.968414 308.378479,269.329803 
	C310.504395,269.482574 311.974640,269.755493 313.421814,269.663757 
	C320.298279,269.227753 326.934570,267.851562 333.031891,264.429352 
	C335.133179,263.249969 337.322571,263.050537 338.687866,265.437836 
	C339.981964,267.700592 338.381073,269.178192 336.707947,270.423035 
	C333.724854,272.642487 330.322937,274.042542 326.790161,275.035309 
	C323.411224,275.984924 319.945801,276.627045 315.671082,277.596436 
	C332.196472,288.654510 348.599426,296.567413 368.199890,294.888733 
	C371.020569,294.647156 374.813690,293.539795 375.905914,297.456543 
	C376.971375,301.277252 372.531403,301.081329 370.371887,303.104187 
	C385.018188,308.401672 399.768921,312.061035 415.443756,315.515686 
	C413.590118,310.899750 411.365906,307.452026 409.103027,304.004791 
	C407.660095,301.806610 405.542480,299.148132 408.698151,297.072632 
	C411.751373,295.064514 413.546967,297.955902 415.117889,300.045807 
	C419.740906,306.196106 423.502441,312.831329 426.429260,319.976807 
	C432.549255,334.918060 434.780090,350.764130 437.461975,366.501892 
	C438.877380,374.807861 437.456726,382.923828 433.602417,390.250519 
	C431.429352,394.381287 430.123596,398.078674 431.718262,402.523254 
	C438.570923,402.850800 440.967194,401.210785 443.918030,394.067108 
	C445.418671,390.434113 446.119354,386.074829 451.680542,386.599213 
	C451.680542,381.203125 451.804596,376.215240 451.646545,371.236267 
	C451.479736,365.981049 452.452515,360.891571 454.107361,356.020172 
	C458.548981,342.945129 463.241364,329.937195 468.133362,317.041504 
	C472.364563,305.887604 472.649139,295.426605 468.086670,284.601044 
	C466.924042,281.842468 465.895966,279.014038 465.021271,276.151947 
	C464.451599,274.287903 464.685577,272.346924 466.810364,271.535034 
	C468.661621,270.827698 470.027710,272.003601 471.030396,273.413086 
	C471.795715,274.488983 472.367401,275.711365 472.956085,276.902771 
	C479.333771,289.809937 481.678650,303.063049 476.244751,316.932129 
	C474.797089,320.627136 475.709625,322.325500 479.901825,322.849182 
	C491.289490,324.271667 502.605804,326.175385 514.066650,327.126343 
	C532.809265,328.681488 551.358521,328.382599 569.401306,322.408508 
	C576.727966,319.982666 584.079041,317.433105 590.650757,312.517792 
	C588.753296,309.602081 587.118591,307.111969 585.505615,304.607819 
	C576.854614,291.176910 572.513977,276.591034 573.805603,260.529572 
	C574.039368,257.622742 574.610229,254.267731 578.324646,254.541611 
	C582.015198,254.813705 582.350342,258.150330 581.860291,261.089325 
	C580.821533,267.318939 582.062317,273.341187 583.275879,280.215546 
M614.656067,348.115967 
	C616.029602,343.465576 618.991516,338.744934 613.966980,334.404694 
	C608.937500,330.060089 603.926514,325.693970 598.911560,321.332520 
	C597.795898,320.362213 596.800354,319.061279 595.035645,319.961212 
	C590.513306,322.267456 585.995239,324.582031 581.032166,327.119904 
	C582.884949,329.450592 584.127869,331.446045 585.775696,333.016693 
	C596.377991,343.122620 597.695496,354.803284 592.676636,368.120697 
	C589.875488,375.553650 586.390015,382.587555 582.110657,389.726776 
	C587.633667,390.496796 591.842163,389.938171 594.658752,385.083405 
	C596.775574,381.434753 598.382385,377.130981 603.499329,376.364624 
	C604.574829,376.203583 604.689148,374.867798 604.851990,373.893707 
	C606.354492,364.906921 610.598755,356.958313 614.656067,348.115967 
M418.920197,373.224762 
	C419.579651,364.563385 421.163544,356.074188 423.810760,347.800934 
	C426.328033,339.933899 422.222290,333.199585 420.176727,326.120361 
	C419.982544,325.448303 419.128571,324.650024 418.443054,324.485809 
	C411.631378,322.853912 404.790649,321.343140 397.480286,319.690125 
	C405.280090,343.588257 412.240692,366.544586 399.875000,390.112915 
	C406.791840,390.924377 414.928833,383.913025 418.920197,373.224762 
M356.827454,185.387360 
	C351.007874,179.827148 343.438690,178.625870 335.031891,176.247910 
	C337.955383,183.923615 337.020172,191.411835 340.131134,198.557159 
	C345.301575,195.208572 350.009979,192.158478 354.719391,189.109955 
	C355.415619,188.659271 356.243896,188.328049 356.770813,187.729919 
	C357.124268,187.328705 357.053711,186.553940 356.827454,185.387360 
M298.581879,267.319244 
	C300.402588,266.255768 301.500153,264.794678 301.813477,262.600677 
	C302.782806,255.813278 297.742889,246.338684 291.608490,243.392426 
	C289.149658,242.211472 287.828888,242.861969 287.294495,245.426392 
	C286.901550,247.312103 287.153778,248.886536 288.716675,250.371368 
	C291.156342,252.689148 292.203979,255.865128 291.295105,259.033569 
	C289.178894,266.410767 290.364441,268.149414 298.581879,267.319244 
z"/>
<path fill="#000000" opacity="1.000000" stroke="none" 
	d="
M674.011414,187.936844 
	C675.960632,184.678940 678.714905,183.458344 682.843994,185.020294 
	C685.442993,188.024857 687.153687,190.861725 687.098633,194.368057 
	C687.036377,198.340042 684.875122,199.780106 681.227112,198.262756 
	C676.678406,196.370712 674.126770,192.978760 674.011414,187.936844 
z"/>
<path fill="#000000" opacity="1.000000" stroke="none" 
	d="
M385.526062,193.743195 
	C384.541840,191.815247 383.851837,190.121323 382.002228,188.802292 
	C380.383728,191.928818 379.585541,194.691132 382.038361,197.590759 
	C383.344818,199.135162 383.855438,200.973160 382.050629,202.418015 
	C380.083252,203.993011 378.230957,202.993591 376.829285,201.376450 
	C374.559692,198.758057 373.245819,195.618515 373.963470,192.183517 
	C374.842163,187.977448 375.996368,183.795807 377.448364,179.753326 
	C378.569611,176.631470 381.020752,176.182251 383.187531,178.717056 
	C387.827118,184.144760 392.309998,189.704453 393.704315,197.057831 
	C394.256104,199.967819 393.947693,202.666855 392.722900,205.292664 
	C391.912323,207.030304 390.805786,208.609833 388.566681,207.919571 
	C386.646362,207.327606 386.321960,205.628677 386.542877,203.859970 
	C386.958344,200.534164 387.170227,197.240860 385.526062,193.743195 
z"/>
<path fill="#000000" opacity="1.000000" stroke="none" 
	d="
M360.418335,224.373016 
	C363.220795,226.098236 364.830170,228.089996 363.331329,231.101471 
	C362.207306,233.359848 360.270020,234.690659 357.660828,234.093246 
	C355.309998,233.554977 353.928894,231.711777 353.918915,229.407349 
	C353.901825,225.458572 356.252136,223.867035 360.418335,224.373016 
z"/>
<path fill="#000000" opacity="1.000000" stroke="none" 
	d="
M299.517700,255.626053 
	C300.475433,258.302887 300.285065,260.583313 297.633392,261.120026 
	C294.921204,261.669037 294.276703,258.967194 293.423065,257.096161 
	C292.496735,255.065842 291.937927,252.461960 294.339844,251.450714 
	C297.444153,250.143723 298.484802,252.917755 299.517700,255.626053 
z"/>
</svg>