<svg version="1.1" id="Layer_1" xmlns="http://www.w3.org/2000/svg" xmlns:xlink="http://www.w3.org/1999/xlink" x="0px" y="0px"
	 width="100%" viewBox="0 0 1024 480" enable-background="new 0 0 1024 480" xml:space="preserve">
<path fill="#000000" opacity="1.000000" stroke="none" 
	d="
M401.886414,355.250610 
	C362.474670,338.530914 346.956085,304.797821 349.970367,266.312439 
	C351.399506,248.065704 360.378082,232.778137 372.885559,219.653748 
	C385.936005,205.959595 401.364594,195.264069 418.663391,188.041092 
	C439.985382,179.138214 458.974548,166.969727 476.861420,152.564545 
	C496.751892,136.545746 519.018860,125.241203 544.571899,121.270729 
	C593.701477,113.636887 639.046692,135.322754 658.681824,184.127090 
	C668.802185,209.281754 664.219849,233.472885 651.351685,256.562042 
	C642.857910,271.802307 631.460876,284.720337 617.395630,294.759613 
	C588.364258,315.481079 558.594788,335.251312 525.794006,349.582611 
	C488.282867,365.972046 449.452026,369.595825 409.701080,358.243134 
	C407.150696,357.514771 404.723663,356.354431 401.886414,355.250610 
M628.322144,268.814362 
	C633.154297,263.484589 637.275696,257.615967 640.902527,251.437332 
	C652.364563,231.910965 656.282715,211.004150 648.251770,189.574539 
	C631.946350,146.065887 591.435303,125.566101 545.985718,132.754684 
	C523.223022,136.354965 503.153381,146.277710 485.344299,160.569260 
	C466.278473,175.869324 446.335510,189.409378 423.460114,198.599289 
	C410.457001,203.823120 398.795990,211.763885 388.173798,221.047409 
	C365.513000,240.852402 356.431976,265.227142 363.380707,294.939545 
	C369.911285,322.863861 388.328339,339.880951 414.895508,347.570404 
	C450.083191,357.754944 484.781433,353.750732 518.511780,340.156647 
	C543.404175,330.124390 565.250732,314.655762 588.066589,300.923248 
	C602.692566,292.120148 616.349121,282.088470 628.322144,268.814362 
z"/>
<path fill="#000000" opacity="1.000000" stroke="none" 
	d="
M569.061279,245.926331 
	C571.108582,244.498840 572.783875,244.884155 574.570374,245.680527 
	C586.039307,250.792999 592.318237,265.230743 588.189331,277.144470 
	C587.110107,280.258667 585.186157,282.803741 581.625916,281.728882 
	C577.941101,280.616455 577.355408,277.654358 578.503540,274.040833 
	C580.980652,266.244507 578.528137,259.975555 571.133667,255.403488 
	C567.185059,252.961975 565.444702,250.301941 569.061279,245.926331 
z"/>
<path fill="#000000" opacity="1.000000" stroke="none" 
	d="
M499.222473,322.838562 
	C499.483246,321.165680 499.712372,319.848602 500.125214,318.591827 
	C502.595795,311.071350 501.194550,305.888123 495.252563,300.834320 
	C494.493256,300.188538 493.593628,299.681519 492.930298,298.954010 
	C490.987152,296.822723 490.879730,294.356171 492.461731,292.094025 
	C494.169708,289.651794 496.494324,289.643585 499.071869,291.008667 
	C509.772247,296.675690 514.790771,312.129913 509.436493,323.123413 
	C508.369232,325.314728 507.027222,327.156494 504.283325,327.204803 
	C501.533752,327.253265 499.989899,325.750854 499.222473,322.838562 
z"/>
<path fill="#000000" opacity="1.000000" stroke="none" 
	d="
M403.978149,312.615997 
	C405.359741,312.420288 406.332062,312.179810 407.319092,312.061371 
	C410.426208,311.688385 412.584534,312.990692 413.243530,316.052795 
	C413.931183,319.248047 412.134064,321.184509 409.222473,321.932404 
	C403.005829,323.529236 396.987305,322.764709 391.373016,319.660553 
	C385.692535,316.519775 381.365845,312.039001 378.610626,306.089539 
	C377.153961,302.944122 377.958252,300.406921 380.921234,298.971039 
	C383.751556,297.599457 386.108063,298.744141 387.530243,301.550598 
	C390.877289,308.155579 396.188110,311.888641 403.978149,312.615997 
z"/>
<path fill="#000000" opacity="1.000000" stroke="none" 
	d="
M479.008453,181.713989 
	C491.241486,185.788193 497.936554,193.563385 498.315186,203.587509 
	C498.445648,207.041565 497.939178,210.373108 493.956299,210.757248 
	C489.731171,211.164780 488.534210,207.830338 487.972229,204.268890 
	C486.776031,196.688843 482.725342,192.523895 475.029266,191.373566 
	C471.258453,190.809937 468.297485,189.538681 468.978607,185.249969 
	C469.657318,180.976456 473.031799,180.517578 476.671600,181.180298 
	C477.324280,181.299133 477.965576,181.480499 479.008453,181.713989 
z"/>
<path fill="#000000" opacity="1.000000" stroke="none" 
	d="
M609.074219,209.788086 
	C610.834900,204.060638 613.170776,203.134644 617.771057,205.950287 
	C626.867859,211.518082 631.599365,223.828568 628.326965,233.188995 
	C627.301453,236.122437 625.404175,237.723190 622.339905,237.121353 
	C619.258423,236.516129 617.702942,234.071503 618.322083,231.202347 
	C619.972717,223.553177 617.254211,217.916092 611.191528,213.482193 
	C610.085815,212.673569 609.474609,211.477493 609.074219,209.788086 
z"/>
<path fill="#000000" opacity="1.000000" stroke="none" 
	d="
M391.702515,231.515503 
	C392.864716,228.622025 395.066925,228.025986 397.485687,227.845795 
	C406.297913,227.189316 417.038147,233.457565 420.952179,241.341217 
	C422.364197,244.185272 422.176178,246.502579 419.486023,248.276260 
	C416.775665,250.063232 414.209442,249.456787 412.587952,246.809311 
	C408.941620,240.855621 403.788239,238.094025 396.829803,238.099808 
	C392.984161,238.102997 391.080078,235.861511 391.702515,231.515503 
z"/>
<path fill="#000000" opacity="1.000000" stroke="none" 
	d="
M555.467102,162.946350 
	C553.704590,162.120544 552.759888,160.962799 552.050598,159.634399 
	C549.078064,154.067322 544.383911,151.060104 538.195129,150.362381 
	C534.425720,149.937439 532.185852,148.091629 532.863342,144.181641 
	C533.517029,140.409149 536.443726,139.884415 539.741150,140.306229 
	C549.112793,141.505020 556.204468,146.171051 560.733582,154.438309 
	C563.532227,159.546799 561.797852,162.384689 555.467102,162.946350 
z"/>
</svg>