<svg version="1.1" id="Layer_1" xmlns="http://www.w3.org/2000/svg" xmlns:xlink="http://www.w3.org/1999/xlink" x="0px" y="0px"
	 width="100%" viewBox="0 0 1024 480" enable-background="new 0 0 1024 480" xml:space="preserve">
<path fill="#000000" opacity="1.000000" stroke="none" 
	d="
M583.357910,374.200378 
	C578.515015,379.950500 572.591614,382.296448 565.499084,382.287872 
	C527.010498,382.241211 488.521912,382.288574 450.033386,382.254974 
	C438.070984,382.244537 430.138885,375.397369 428.756287,363.560822 
	C428.352356,360.103058 426.182007,359.298828 423.717072,358.232513 
	C400.740692,348.292511 381.351379,333.811157 367.119232,312.976929 
	C355.112946,295.401093 348.245239,276.007111 347.167694,254.655823 
	C346.927063,249.888199 348.829590,247.524414 353.719391,247.116241 
	C356.367828,246.895157 359.047577,246.994293 361.711945,247.034073 
	C364.705597,247.078781 365.777161,245.902557 365.436859,242.748154 
	C364.085907,230.225647 369.244843,220.681992 379.706421,214.115005 
	C382.574829,212.314453 383.876312,210.424271 384.303284,207.140198 
	C386.252686,192.147018 395.063293,183.253143 409.556885,179.849167 
	C412.033173,179.267593 413.141296,178.117905 413.879761,175.772583 
	C418.146027,162.223083 431.178070,153.324127 443.744629,154.652451 
	C446.720245,154.966980 448.624451,153.774216 450.468628,151.419678 
	C458.870300,140.692917 469.947174,137.465775 482.958527,140.716110 
	C485.351593,141.313934 486.873993,140.974945 488.778168,139.451523 
	C500.958038,129.706848 515.057556,129.740814 527.194824,139.595917 
	C529.171692,141.201111 530.733887,141.256699 533.035645,140.705612 
	C546.199463,137.553909 557.490723,140.383453 565.751099,151.761993 
	C567.298889,153.894119 569.070679,154.609772 571.635071,154.669708 
	C588.032593,155.053131 596.431152,161.087723 602.271912,176.686157 
	C603.029358,178.708893 604.185730,179.392746 606.154663,179.898926 
	C622.227417,184.030991 629.360168,192.126312 631.403687,208.599991 
	C631.690002,210.908325 632.768982,212.121674 634.618164,213.204300 
	C646.166626,219.965622 652.076233,229.746002 650.496399,243.415894 
	C650.225647,245.758682 651.158752,246.878357 653.498413,246.895050 
	C656.330505,246.915253 659.174744,246.801315 661.991760,247.023941 
	C666.706299,247.396515 669.286072,250.311630 668.959167,255.009613 
	C667.192261,280.394104 658.130371,302.790680 641.633362,322.245026 
	C627.972900,338.354309 611.079041,349.867279 591.793640,358.044861 
	C588.816711,359.307129 587.248901,360.816040 587.157471,364.201721 
	C587.062134,367.731171 585.696411,371.010742 583.357910,374.200378 
M529.500000,259.246704 
	C473.068726,259.246704 416.637451,259.246704 360.757019,259.246704 
	C359.493530,260.822388 359.802032,261.817139 359.918030,262.797852 
	C361.104004,272.825287 364.140015,282.342102 368.471497,291.385284 
	C381.310944,318.191315 402.230072,336.395477 429.412933,347.702423 
	C433.658936,349.468628 437.703247,351.765106 442.653168,351.751373 
	C485.809540,351.631500 528.966309,351.669800 572.122986,351.622711 
	C573.932434,351.620728 575.864258,351.582886 577.532593,350.985291 
	C611.812927,338.705963 637.833679,317.401733 651.138245,282.618195 
	C653.897888,275.403168 656.224304,267.897369 656.072815,259.247498 
	C614.041138,259.247498 572.270569,259.247498 529.500000,259.246704 
M427.261749,174.896591 
	C425.873779,177.386292 424.775909,180.003586 424.387177,182.831741 
	C423.297058,190.762115 422.927673,191.142593 415.244843,191.325272 
	C403.707703,191.599625 395.624054,200.354385 396.300385,211.842468 
	C396.778961,219.971649 396.778961,219.971680 389.413116,222.470627 
	C381.003815,225.323563 375.973602,233.695068 377.174652,242.488220 
	C377.622131,245.764191 379.197083,247.162384 382.463348,247.032028 
	C385.458282,246.912491 388.462128,247.021225 391.462067,247.021255 
	C471.627289,247.022263 551.792542,247.024368 631.957764,247.017761 
	C637.717346,247.017288 638.757019,246.015549 638.897034,240.537827 
	C639.118835,231.865707 634.227356,225.097153 625.432861,222.331146 
	C621.319946,221.037552 618.663391,219.167068 619.263611,214.228149 
	C620.939331,200.439880 613.389526,191.778351 599.557983,191.358505 
	C593.773438,191.182892 592.388245,189.903214 591.655701,184.058136 
	C590.050659,171.252090 580.660950,164.374878 568.008850,166.964691 
	C563.218079,167.945328 560.125977,166.721329 557.989624,162.060104 
	C553.564026,152.404236 543.552002,148.773972 533.705872,152.868240 
	C526.376160,155.916122 526.376160,155.916122 521.055054,150.063751 
	C513.612061,141.877625 501.231384,142.043030 494.409790,150.748322 
	C491.069977,155.010361 487.892273,155.957809 482.865509,153.464493 
	C472.600983,148.373215 462.769348,151.925217 457.909149,162.181015 
	C455.854004,166.517685 452.880829,168.175705 448.296478,166.978638 
	C439.760590,164.749725 432.867065,167.103653 427.261749,174.896591 
M470.503021,370.088226 
	C501.290344,370.078156 532.077637,370.075287 562.864990,370.042603 
	C565.020630,370.040314 567.239258,370.097809 569.316223,369.629211 
	C572.214478,368.975250 574.365540,367.367462 574.026672,363.744446 
	C529.774780,363.744446 485.798187,363.744446 441.398529,363.744446 
	C442.280151,369.676422 446.333771,370.467865 450.551971,370.506714 
	C456.867859,370.564972 463.187195,370.248047 470.503021,370.088226 
z"/>
<path fill="#000000" opacity="1.000000" stroke="none" 
	d="
M465.438416,190.408798 
	C463.224487,193.810608 461.034088,196.612534 456.830170,194.200256 
	C453.380219,192.220581 453.029877,188.582031 455.831909,184.258911 
	C459.221313,179.029633 464.280060,176.495438 470.312775,175.763397 
	C474.063324,175.308273 477.192444,176.599854 477.746704,180.567886 
	C478.268341,184.302628 475.598389,186.322754 472.182495,186.955933 
	C469.657928,187.423920 467.344818,188.036285 465.438416,190.408798 
z"/>
<path fill="#000000" opacity="1.000000" stroke="none" 
	d="
M523.945068,203.208420 
	C526.132385,208.880966 524.959656,211.167145 519.508301,212.386108 
	C516.477783,213.063721 513.982483,214.372009 512.205261,217.052597 
	C510.225494,220.038666 507.431793,221.500046 504.221008,219.192520 
	C501.234344,217.046097 501.113953,213.974777 502.870941,210.786438 
	C507.043213,203.214981 517.715088,199.151199 523.945068,203.208420 
z"/>
<path fill="#000000" opacity="1.000000" stroke="none" 
	d="
M607.384766,231.021271 
	C602.847412,234.760193 600.696289,234.738922 597.628357,230.665695 
	C595.735962,228.153198 593.501831,226.467224 590.592346,225.394836 
	C587.229309,224.155258 585.169739,221.748154 586.517822,218.073883 
	C587.783203,214.625305 590.602173,213.640305 594.237366,214.459442 
	C603.043457,216.443787 608.969177,223.545349 607.384766,231.021271 
z"/>
<path fill="#000000" opacity="1.000000" stroke="none" 
	d="
M536.437622,224.658554 
	C542.090088,218.605438 555.404419,219.704102 559.576477,226.235229 
	C561.084656,228.596268 560.913269,231.009048 559.130981,233.147797 
	C557.448059,235.167297 555.147949,235.844681 552.890869,234.458252 
	C549.456482,232.348663 545.914551,231.904037 541.954895,232.166565 
	C537.598999,232.455383 536.047852,230.201874 536.437622,224.658554 
z"/>
<path fill="#000000" opacity="1.000000" stroke="none" 
	d="
M520.568970,174.369110 
	C518.554871,171.839096 518.439575,169.512848 520.141235,167.220581 
	C521.805481,164.978638 524.162048,164.362381 526.795593,164.850021 
	C532.862427,165.973419 537.540222,169.101837 540.416138,174.657745 
	C542.002319,177.722061 541.692139,180.654465 538.690369,182.520630 
	C535.970947,184.211304 532.943359,183.747742 531.241394,180.956192 
	C528.788208,176.932434 524.254761,176.813965 520.568970,174.369110 
z"/>
<path fill="#000000" opacity="1.000000" stroke="none" 
	d="
M572.767334,194.500031 
	C570.615784,195.320663 569.668884,196.949951 568.391968,198.224686 
	C566.263367,200.349548 563.812744,200.917953 561.243713,199.124435 
	C558.948730,197.522308 558.343140,195.241287 559.173706,192.557892 
	C560.994080,186.676804 570.950378,180.899643 576.891724,182.359467 
	C579.386475,182.972443 580.899353,184.671890 581.231323,187.206009 
	C581.591431,189.954605 580.496277,192.152557 577.933228,193.255066 
	C576.446167,193.894730 574.740601,194.026505 572.767334,194.500031 
z"/>
<path fill="#000000" opacity="1.000000" stroke="none" 
	d="
M432.915222,217.946594 
	C432.605957,219.097183 432.534271,220.212204 431.973480,220.578476 
	C427.469025,223.520691 423.286804,226.642822 420.313751,231.372375 
	C419.177063,233.180679 416.364075,232.930939 414.399689,231.557877 
	C412.323364,230.106567 411.534027,227.976425 411.920868,225.461243 
	C412.839142,219.491013 420.404205,212.423553 426.433868,212.060349 
	C430.232452,211.831543 432.175232,214.060608 432.915222,217.946594 
z"/>
<path fill="#000000" opacity="1.000000" stroke="none" 
	d="
M469.792145,234.876831 
	C469.180725,235.270035 468.901306,235.488358 468.587189,235.565857 
	C464.369385,236.606461 453.260345,227.726944 453.494537,223.430588 
	C453.691071,219.825256 455.887177,217.958908 459.337799,217.927628 
	C463.851532,217.886719 471.353058,224.758087 472.106934,229.297729 
	C472.469116,231.478638 471.714111,233.208862 469.792145,234.876831 
z"/>
</svg>